<?xml version="1.0" encoding="utf-8"?>
<!-- Generator: Adobe Illustrator 26.3.1, SVG Export Plug-In . SVG Version: 6.00 Build 0)  -->
<svg version="1.1" id="Layer_1" xmlns="http://www.w3.org/2000/svg" xmlns:xlink="http://www.w3.org/1999/xlink" x="0px" y="0px"
	 viewBox="0 0 266 73" style="enable-background:new 0 0 266 73;" xml:space="preserve">
<style type="text/css">
	.st0{fill:#FFFFFF;}
</style>
<g>
	<path class="st0" d="M40.7,15C26,15,14.6,9.6,8.1,5.7v61.5C14.6,63.4,26,58,40.7,58c7,0,19.1,1.3,32.6,9.3V5.7
		C59.8,13.8,47.8,15,40.7,15z"/>
	<g>
		<polygon class="st0" points="142.4,52.6 136.3,59.2 94.4,59.2 94.4,13.8 103.2,13.8 103.2,52.6 		"/>
		<polygon class="st0" points="187.7,59.2 169.6,40.1 153,59.2 143.2,59.2 164.7,35.8 142.9,13.8 154.2,13.8 170,30.6 185.1,13.8 
			194.5,13.8 174.8,34.6 199.3,59.2 		"/>
		<polygon class="st0" points="249.1,59.2 249.1,38.6 211.9,38.6 211.9,59.2 203.2,59.2 203.2,13.8 211.9,13.8 211.9,32.3 
			249.1,32.3 249.1,13.8 257.9,13.8 257.9,59.2 		"/>
		<line class="st0" x1="142.4" y1="52.6" x2="136.3" y2="59.2"/>
	</g>
</g>
</svg>
